<svg width="24" height="24" viewBox="0 0 24 24" fill="none" xmlns="http://www.w3.org/2000/svg">
<path d="M11.9999 1.71429C12.1704 1.71429 12.334 1.78202 12.4545 1.90258C12.5751 2.02314 12.6428 2.18666 12.6428 2.35715V3.63944C12.6428 3.80993 12.5751 3.97345 12.4545 4.09401C12.334 4.21457 12.1704 4.28229 11.9999 4.28229C11.8294 4.28229 11.6659 4.21457 11.5454 4.09401C11.4248 3.97345 11.3571 3.80993 11.3571 3.63944V2.35715C11.3571 2.18666 11.4248 2.02314 11.5454 1.90258C11.6659 1.78202 11.8294 1.71429 11.9999 1.71429ZM17.1428 12C17.1428 12.6754 17.0098 13.3441 16.7513 13.9681C16.4929 14.5921 16.1141 15.159 15.6365 15.6366C15.1589 16.1141 14.592 16.4929 13.968 16.7514C13.3441 17.0098 12.6753 17.1429 11.9999 17.1429C11.3246 17.1429 10.6558 17.0098 10.0319 16.7514C9.4079 16.4929 8.84095 16.1141 8.3634 15.6366C7.88584 15.159 7.50702 14.5921 7.24857 13.9681C6.99011 13.3441 6.85709 12.6754 6.85709 12C6.85709 10.636 7.39892 9.32793 8.3634 8.36346C9.32787 7.39899 10.636 6.85715 11.9999 6.85715C13.3639 6.85715 14.672 7.39899 15.6365 8.36346C16.601 9.32793 17.1428 10.636 17.1428 12ZM21.6428 12.6429C21.8133 12.6429 21.9768 12.5751 22.0974 12.4546C22.2179 12.334 22.2857 12.1705 22.2857 12C22.2857 11.8295 22.2179 11.666 22.0974 11.5454C21.9768 11.4249 21.8133 11.3572 21.6428 11.3572H20.3605C20.19 11.3572 20.0265 11.4249 19.9059 11.5454C19.7854 11.666 19.7177 11.8295 19.7177 12C19.7177 12.1705 19.7854 12.334 19.9059 12.4546C20.0265 12.5751 20.19 12.6429 20.3605 12.6429H21.6428ZM11.9999 19.7177C12.1704 19.7177 12.334 19.7855 12.4545 19.906C12.5751 20.0266 12.6428 20.1901 12.6428 20.3606V21.6429C12.6428 21.8134 12.5751 21.9769 12.4545 22.0974C12.334 22.218 12.1704 22.2857 11.9999 22.2857C11.8294 22.2857 11.6659 22.218 11.5454 22.0974C11.4248 21.9769 11.3571 21.8134 11.3571 21.6429V20.3606C11.3571 20.1901 11.4248 20.0266 11.5454 19.906C11.6659 19.7855 11.8294 19.7177 11.9999 19.7177ZM3.6428 12.6429C3.8133 12.6429 3.97681 12.5751 4.09737 12.4546C4.21793 12.334 4.28566 12.1705 4.28566 12C4.28566 11.8295 4.21793 11.666 4.09737 11.5454C3.97681 11.4249 3.8133 11.3572 3.6428 11.3572H2.35795C2.18745 11.3572 2.02394 11.4249 1.90338 11.5454C1.78282 11.666 1.71509 11.8295 1.71509 12C1.71509 12.1705 1.78282 12.334 1.90338 12.4546C2.02394 12.5751 2.18745 12.6429 2.35795 12.6429H3.64366H3.6428ZM4.47423 4.47344C4.59477 4.35305 4.75816 4.28543 4.92852 4.28543C5.09887 4.28543 5.26227 4.35305 5.3828 4.47344L6.66852 5.75915C6.78207 5.88102 6.84389 6.0422 6.84095 6.20874C6.83801 6.37529 6.77055 6.53419 6.65276 6.65197C6.53498 6.76975 6.37608 6.83722 6.20954 6.84016C6.04299 6.8431 5.88181 6.78128 5.75994 6.66772L4.47423 5.38201C4.35384 5.26147 4.28623 5.09808 4.28623 4.92772C4.28623 4.75737 4.35384 4.59397 4.47423 4.47344ZM5.3828 19.5249C5.26094 19.6384 5.09976 19.7002 4.93321 19.6973C4.76667 19.6944 4.60777 19.6269 4.48998 19.5091C4.3722 19.3913 4.30473 19.2324 4.3018 19.0659C4.29886 18.8993 4.36068 18.7382 4.47423 18.6163L5.75994 17.3306C5.88181 17.217 6.04299 17.1552 6.20954 17.1581C6.37608 17.1611 6.53498 17.2286 6.65276 17.3463C6.77055 17.4641 6.83801 17.623 6.84095 17.7896C6.84389 17.9561 6.78207 18.1173 6.66852 18.2392L5.3828 19.5249ZM19.5257 4.47344C19.4051 4.35305 19.2417 4.28543 19.0714 4.28543C18.901 4.28543 18.7376 4.35305 18.6171 4.47344L17.3314 5.75915C17.2682 5.818 17.2176 5.88898 17.1824 5.96783C17.1473 6.04669 17.1284 6.13182 17.1269 6.21813C17.1253 6.30445 17.1412 6.39019 17.1736 6.47024C17.2059 6.55028 17.254 6.623 17.3151 6.68404C17.3761 6.74509 17.4488 6.79321 17.5289 6.82554C17.6089 6.85787 17.6946 6.87375 17.781 6.87223C17.8673 6.87071 17.9524 6.85181 18.0313 6.81668C18.1101 6.78154 18.1811 6.73088 18.2399 6.66772L19.5257 5.38201C19.646 5.26147 19.7137 5.09808 19.7137 4.92772C19.7137 4.75737 19.646 4.59397 19.5257 4.47344ZM18.6171 19.5257C18.739 19.6393 18.9001 19.7011 19.0667 19.6982C19.2332 19.6952 19.3921 19.6278 19.5099 19.51C19.6277 19.3922 19.6952 19.2333 19.6981 19.0667C19.701 18.9002 19.6392 18.739 19.5257 18.6172L18.2399 17.3314C18.1181 17.2179 17.9569 17.1561 17.7904 17.159C17.6238 17.1619 17.4649 17.2294 17.3471 17.3472C17.2293 17.465 17.1619 17.6239 17.1589 17.7904C17.156 17.957 17.2178 18.1181 17.3314 18.24L18.6171 19.5257Z" fill="white"/>
</svg>
